<svg id="Layer_1" data-name="Layer 1" xmlns="http://www.w3.org/2000/svg" viewBox="0 0 150 65.89"><defs><style>.cls-1{fill:#ff5f00;}.cls-2,.cls-3,.cls-4,.cls-5{fill:#231f20;}.cls-3{opacity:0.2;}.cls-4{opacity:0.3;}.cls-5{opacity:0.6;}</style></defs><title>Untitled-2</title><path class="cls-1" d="M59.69,29.49c0,4.73,3.06,9,9.08,9H87.66V29.91H74.76a4.13,4.13,0,0,1-4.53-4.46V14.6c0-3.63,2.14-4.76,4.36-4.76H87.66V1.27H68c-5.08,0-8.35,3.1-8.35,9.17Z"/><path class="cls-2" d="M.13,65.74H1.45V59H.13Zm6.79-1.91L4.46,59H2.87v6.78H4.16l0-5.13,2.57,5.13H8.15V59H6.86Zm2-3.68h1.95v5.59h1.31V60.15h1.94V59H8.91Zm6.29-.34a4.23,4.23,0,0,0-.69,2.66,5.05,5.05,0,0,0,.23,1.6,2.52,2.52,0,0,0,.69,1.08,2.42,2.42,0,0,0,.76.46,3.66,3.66,0,0,0,1.11.13h2.14V64.56H17.36a1.37,1.37,0,0,1-1.1-.39,2,2,0,0,1-.33-1.27h3.51V61.72h-3.5a1.84,1.84,0,0,1,.38-1.18,1.34,1.34,0,0,1,1-.39h2.08V59h-2.1a2.61,2.61,0,0,0-2.14.85m10.41,2.45A2.28,2.28,0,0,0,25.92,61a2.08,2.08,0,0,0-.51-1.55A2.19,2.19,0,0,0,23.82,59H20.71v6.78H22V63.07h1.49l1.32,2.67H26.2L24.7,62.9a1.41,1.41,0,0,0,.91-.64m-1.21-.58a1.49,1.49,0,0,1-.88.19H22v-1.7h1.55a1.45,1.45,0,0,1,.88.19.79.79,0,0,1,.24.66.81.81,0,0,1-.24.66m6.8,2.15L28.74,59H27.15v6.78h1.29l-.05-5.13L31,65.74h1.46V59H31.14ZM35.54,59,33,65.74h1.34l.53-1.61h2.61L38,65.74h1.41L36.88,59Zm-.26,4,.88-2.61.91,2.61Zm3.35-2.77h1.95v5.59h1.31V60.15h1.94V59h-5.2Zm6,5.59h1.32V59H44.61ZM50,58.84a2.84,2.84,0,0,0-2.26.85,3.9,3.9,0,0,0-.74,2.6A4.24,4.24,0,0,0,47.69,65a3.37,3.37,0,0,0,4.52,0A4,4,0,0,0,53,62.36a4,4,0,0,0-.74-2.66A2.76,2.76,0,0,0,50,58.84m1.22,5.3a1.58,1.58,0,0,1-2.45,0,3.35,3.35,0,0,1-.38-1.83,3,3,0,0,1,.4-1.73A1.37,1.37,0,0,1,50,60a1.39,1.39,0,0,1,1.22.57,4.18,4.18,0,0,1,0,3.57M58,63.83,55.58,59H54v6.78h1.29l-.06-5.13,2.58,5.13h1.47V59H58ZM62.38,59l-2.55,6.78h1.35l.53-1.61h2.61l.55,1.61h1.4L63.72,59Zm-.26,4L63,60.31l.91,2.61Zm6.5,1.59a.93.93,0,0,1-.43-.34.73.73,0,0,1-.16-.39A4.12,4.12,0,0,1,68,63V59H66.72v4a5,5,0,0,0,.12,1.25,2,2,0,0,0,.42.79,1.73,1.73,0,0,0,.73.55,3.56,3.56,0,0,0,1.25.16h1.6V64.62H69.35a2,2,0,0,1-.73-.11m9.86-.35L77,59H75.1v6.78h1.28l-.13-5.34,1.59,5.34h1.34l1.54-5.28-.1,5.28h1.23V59H80Zm7.39-5.32a2.84,2.84,0,0,0-2.26.85,3.9,3.9,0,0,0-.74,2.6A4.18,4.18,0,0,0,83.6,65a3.38,3.38,0,0,0,4.53,0,4,4,0,0,0,.73-2.66,4,4,0,0,0-.73-2.66,2.8,2.8,0,0,0-2.26-.86m1.22,5.3a1.58,1.58,0,0,1-2.45,0,3.34,3.34,0,0,1-.39-1.83,3,3,0,0,1,.41-1.73,1.58,1.58,0,0,1,2.43,0,4.18,4.18,0,0,1,0,3.57m2.17-4h1.95v5.59h1.31V60.15h1.94V59h-5.2Zm8.59-1.31a2.84,2.84,0,0,0-2.26.85,3.9,3.9,0,0,0-.74,2.6A4.18,4.18,0,0,0,95.58,65a3.38,3.38,0,0,0,4.53,0,4.08,4.08,0,0,0,.73-2.66,4.08,4.08,0,0,0-.73-2.66,2.8,2.8,0,0,0-2.26-.86m1.22,5.3a1.58,1.58,0,0,1-2.45,0,3.34,3.34,0,0,1-.39-1.83,3.09,3.09,0,0,1,.4-1.73,1.59,1.59,0,0,1,2.44,0,4.18,4.18,0,0,1,0,3.57m7.71-1.88a2.37,2.37,0,0,0,.3-1.26,2.08,2.08,0,0,0-.5-1.55A2.21,2.21,0,0,0,105,59h-3.11v6.78h1.26V63.07h1.49L106,65.74h1.42l-1.5-2.84a1.46,1.46,0,0,0,.91-.64m-1.22-.58a1.45,1.45,0,0,1-.87.19h-1.55v-1.7h1.55a1.47,1.47,0,0,1,.88.19.79.79,0,0,1,.24.66.81.81,0,0,1-.25.66m2.76,4.06h1.32V59h-1.32Zm6.79-1.91L112.65,59h-1.59v6.78h1.29l-.06-5.13,2.59,5.13h1.46V59h-1.29Zm2.93-4a4.18,4.18,0,0,0-.69,2.65,5.05,5.05,0,0,0,.23,1.6,2.63,2.63,0,0,0,.7,1.08,2.09,2.09,0,0,0,.75.45,3.48,3.48,0,0,0,1.15.14h2.71v-4h-3v1.2h1.7v1.59h-1.43a1.23,1.23,0,0,1-1.09-.49,3,3,0,0,1-.34-1.61,3.48,3.48,0,0,1,.34-1.74,1.2,1.2,0,0,1,1.09-.54h2.71V59h-2.71a2.6,2.6,0,0,0-2.14.86m9.78,0a4.23,4.23,0,0,0-.69,2.66,4.77,4.77,0,0,0,.24,1.6,2.52,2.52,0,0,0,.69,1.08,2.21,2.21,0,0,0,.76.46,3.66,3.66,0,0,0,1.11.13h2.13V64.56H130a1.35,1.35,0,0,1-1.15-.46,2.78,2.78,0,0,1-.33-1.57,3.7,3.7,0,0,1,.35-1.85,1.23,1.23,0,0,1,1.13-.56h2.07V59H130a2.62,2.62,0,0,0-2.14.85m7.1,4.7a.91.91,0,0,1-.44-.34.82.82,0,0,1-.16-.39,4.12,4.12,0,0,1,0-.83V59H133v4a5,5,0,0,0,.12,1.25,2,2,0,0,0,.42.79,1.79,1.79,0,0,0,.73.55,3.6,3.6,0,0,0,1.25.16h1.6V64.62h-1.49a1.94,1.94,0,0,1-.72-.11M141.77,63a2.17,2.17,0,0,1-.3,1.32,1.28,1.28,0,0,1-1.05.38,1.3,1.3,0,0,1-1-.38,2.17,2.17,0,0,1-.3-1.32V59h-1.26v4.1a6.81,6.81,0,0,0,.08,1.16,1.68,1.68,0,0,0,.27.66,2,2,0,0,0,.9.7,4.14,4.14,0,0,0,2.72,0,2,2,0,0,0,.9-.7,1.79,1.79,0,0,0,.27-.68,5.88,5.88,0,0,0,.08-1.14V59h-1.26Zm7.75-.07a1.6,1.6,0,0,0-.68-.6,1.77,1.77,0,0,0,.67-.66,2,2,0,0,0,.21-1,1.93,1.93,0,0,0-.17-.85,1.42,1.42,0,0,0-.5-.61,1.52,1.52,0,0,0-.59-.24,6,6,0,0,0-1-.07h-3.09v6.78h3.31a2.22,2.22,0,0,0,1.53-.45,1.83,1.83,0,0,0,.49-1.4,1.79,1.79,0,0,0-.23-.94m-3.84-2.77h1.85a.86.86,0,0,1,.63.19.74.74,0,0,1,.2.59.78.78,0,0,1-.2.6.91.91,0,0,1-.63.19h-1.85Zm2.51,4.18a.93.93,0,0,1-.63.19h-1.88V62.94h1.88a.85.85,0,0,1,.62.2.79.79,0,0,1,.21.61.83.83,0,0,1-.2.61"/><path class="cls-2" d="M8.4,50.51c0,.08,0,.16,0,.25a2.92,2.92,0,0,1,0,.33,2.28,2.28,0,0,1-.2.95,1.79,1.79,0,0,1-.69.74,3.93,3.93,0,0,1-1.32.49,10.12,10.12,0,0,1-2.1.18,7.26,7.26,0,0,1-2-.24,3.36,3.36,0,0,1-1.27-.64,2.16,2.16,0,0,1-.66-1A3.5,3.5,0,0,1,0,50.42V48.33H1.64v2a1.28,1.28,0,0,0,.59,1.19,3.81,3.81,0,0,0,1.95.37,7.76,7.76,0,0,0,1.42-.1,2.94,2.94,0,0,0,.83-.25.87.87,0,0,0,.39-.31.56.56,0,0,0,.1-.29.39.39,0,0,0-.17-.3,2,2,0,0,0-.49-.26,7.77,7.77,0,0,0-.76-.24l-1-.26v-1.5c.56.18,1.09.33,1.6.45a5.46,5.46,0,0,0,1.35.19H9l.19,0a.29.29,0,0,1,.16.09.41.41,0,0,1,.11.21,1.73,1.73,0,0,1,0,.37,1.08,1.08,0,0,1-.12.6.47.47,0,0,1-.38.16ZM2.23,55.26a.89.89,0,0,1,.26-.63.86.86,0,0,1,.63-.27.83.83,0,0,1,.63.27.89.89,0,0,1-.63,1.52.89.89,0,0,1-.89-.89Zm2.05,0a.86.86,0,0,1,.27-.63.83.83,0,0,1,.63-.27.86.86,0,0,1,.63.27.89.89,0,0,1-.63,1.52.9.9,0,0,1-.9-.89Z"/><path class="cls-2" d="M9,50.51l-.18,0a.29.29,0,0,1-.16-.09.42.42,0,0,1-.11-.2,1.84,1.84,0,0,1,0-.38,1,1,0,0,1,.12-.59A.44.44,0,0,1,9,49.06h1.87l.19,0a.29.29,0,0,1,.16.09.41.41,0,0,1,.1.21,1.26,1.26,0,0,1,0,.37,1.08,1.08,0,0,1-.12.6.45.45,0,0,1-.37.16Z"/><path class="cls-2" d="M11.46,49.06a.59.59,0,0,0,.52-.25,2.93,2.93,0,0,0,.35-.73,5.88,5.88,0,0,1,.58-1.25,3,3,0,0,1,.68-.75,2,2,0,0,1,.71-.36,2.52,2.52,0,0,1,.7-.1,2.33,2.33,0,0,1,.92.19,2.09,2.09,0,0,1,.74.53,2.49,2.49,0,0,1,.49.82,3.19,3.19,0,0,1,.17,1v.17a.76.76,0,0,0,0,.15.9.9,0,0,0,.5.42,2,2,0,0,0,.65.12l.19,0a.27.27,0,0,1,.15.09.41.41,0,0,1,.11.21,1.73,1.73,0,0,1,0,.37,1.08,1.08,0,0,1-.12.6.46.46,0,0,1-.37.16,2.18,2.18,0,0,1-.89-.19,1.93,1.93,0,0,1-.68-.6,1.93,1.93,0,0,1-.7.69,2.17,2.17,0,0,1-1.11.25,3.65,3.65,0,0,1-1-.15A4.17,4.17,0,0,1,13,50a1.35,1.35,0,0,1-.67.45,3.45,3.45,0,0,1-.74.07h-.67l-.19,0a.29.29,0,0,1-.16-.09.42.42,0,0,1-.1-.2,1.34,1.34,0,0,1,0-.38,1,1,0,0,1,.12-.59.43.43,0,0,1,.37-.17Zm3.38-1.94a1,1,0,0,0-.71.41,3.2,3.2,0,0,0-.54,1.17,5.46,5.46,0,0,0,.64.32,1.64,1.64,0,0,0,.65.13.75.75,0,0,0,.62-.27,1.08,1.08,0,0,0,.22-.71,1.2,1.2,0,0,0-.05-.38.82.82,0,0,0-.16-.34.78.78,0,0,0-.27-.24A.87.87,0,0,0,14.84,47.12Z"/><path class="cls-2" d="M18.46,50.51l-.19,0a.29.29,0,0,1-.16-.09.42.42,0,0,1-.11-.2,1.94,1.94,0,0,1,0-.38,1,1,0,0,1,.11-.59.45.45,0,0,1,.38-.17h1.86l.19,0a.29.29,0,0,1,.16.09.41.41,0,0,1,.1.21,1.26,1.26,0,0,1,0,.37,1.08,1.08,0,0,1-.12.6.45.45,0,0,1-.37.16Z"/><path class="cls-2" d="M20.32,50.51l-.19,0A.29.29,0,0,1,20,50.4a.42.42,0,0,1-.1-.2,1.34,1.34,0,0,1,0-.38,1,1,0,0,1,.12-.59.43.43,0,0,1,.37-.17h1.86l.19,0a.29.29,0,0,1,.16.09.41.41,0,0,1,.11.21,1.83,1.83,0,0,1,0,.37,1,1,0,0,1-.12.6.43.43,0,0,1-.37.16Z"/><path class="cls-2" d="M22.18,50.51l-.19,0a.27.27,0,0,1-.15-.09.42.42,0,0,1-.11-.2,1.84,1.84,0,0,1,0-.38,1,1,0,0,1,.12-.59.44.44,0,0,1,.37-.17h1.87l.19,0a.24.24,0,0,1,.15.09.35.35,0,0,1,.11.21,1.26,1.26,0,0,1,0,.37,1.08,1.08,0,0,1-.12.6.45.45,0,0,1-.37.16Z"/><path class="cls-2" d="M25.5,49.06V41.52h1.63v9H24.05l-.19,0a.29.29,0,0,1-.16-.09.42.42,0,0,1-.1-.2,1.34,1.34,0,0,1,0-.38,1,1,0,0,1,.12-.59.43.43,0,0,1,.37-.17Z"/><path class="cls-2" d="M31.63,49.75a1.08,1.08,0,0,1-.12.6.45.45,0,0,1-.37.16h-.53a3.29,3.29,0,0,1-.79-.09,1.55,1.55,0,0,1-.61-.32,1.42,1.42,0,0,1-.41-.59,2.58,2.58,0,0,1-.14-.9V41.52H30.3v6.86c0,.29.05.48.15.56a.75.75,0,0,0,.45.12h.24l.19,0a.29.29,0,0,1,.16.09.41.41,0,0,1,.1.21A1.26,1.26,0,0,1,31.63,49.75Z"/><path class="cls-2" d="M31.13,50.51l-.19,0a.29.29,0,0,1-.16-.09.42.42,0,0,1-.11-.2,1.94,1.94,0,0,1,0-.38,1,1,0,0,1,.12-.59.43.43,0,0,1,.37-.17H33l.19,0a.29.29,0,0,1,.16.09.41.41,0,0,1,.11.21,1.83,1.83,0,0,1,0,.37,1.08,1.08,0,0,1-.12.6.45.45,0,0,1-.37.16Z"/><path class="cls-2" d="M33,50.51l-.19,0a.24.24,0,0,1-.15-.09.42.42,0,0,1-.11-.2,1.34,1.34,0,0,1,0-.38,1,1,0,0,1,.12-.59.44.44,0,0,1,.37-.17h1.87l.19,0a.24.24,0,0,1,.15.09.41.41,0,0,1,.11.21,1.26,1.26,0,0,1,0,.37,1.08,1.08,0,0,1-.12.6.46.46,0,0,1-.37.16Z"/><path class="cls-2" d="M34.86,50.51l-.19,0a.29.29,0,0,1-.16-.09.42.42,0,0,1-.11-.2,1.94,1.94,0,0,1,0-.38,1,1,0,0,1,.12-.59.43.43,0,0,1,.37-.17h1.86l.19,0a.29.29,0,0,1,.16.09.35.35,0,0,1,.1.21,1.26,1.26,0,0,1,0,.37,1.08,1.08,0,0,1-.12.6.45.45,0,0,1-.37.16Z"/><path class="cls-2" d="M37.59,49.06h.56A4.41,4.41,0,0,0,38.7,49l-1.26-1.51a2.79,2.79,0,0,1,.11-.35,3.65,3.65,0,0,1,.14-.35,1.8,1.8,0,0,1,.17-.31,1.14,1.14,0,0,1,.16-.23,2.82,2.82,0,0,1,1-.66,3.16,3.16,0,0,1,1.24-.25,3.11,3.11,0,0,1,1,.15,2.53,2.53,0,0,1,.71.4,1.5,1.5,0,0,1,.42.56,1.64,1.64,0,0,1,.14.64,2.13,2.13,0,0,1-.3,1,3.18,3.18,0,0,1-.86,1h2l.19,0a.27.27,0,0,1,.15.09.35.35,0,0,1,.11.21,1.73,1.73,0,0,1,0,.37,1.08,1.08,0,0,1-.12.6.46.46,0,0,1-.37.16h-2a3,3,0,0,1-.74-.11,2.17,2.17,0,0,1-.75-.36,7.36,7.36,0,0,1-1.11.34,4.7,4.7,0,0,1-1.12.13h-.92l-.19,0a.24.24,0,0,1-.15-.09.35.35,0,0,1-.11-.2,1.34,1.34,0,0,1,0-.38,1,1,0,0,1,.12-.59.43.43,0,0,1,.37-.17Zm2.6-2.3a2.35,2.35,0,0,0-.75.1,2.14,2.14,0,0,0-.48.24l.27.35.31.38.32.36a4.22,4.22,0,0,0,.3.3,1.45,1.45,0,0,0,.54-.56,1.18,1.18,0,0,0,.2-.59.71.71,0,0,0,0-.2.5.5,0,0,0-.1-.19.64.64,0,0,0-.22-.14A1.27,1.27,0,0,0,40.19,46.76Z"/><path class="cls-2" d="M43.39,50.51l-.19,0A.29.29,0,0,1,43,50.4a.42.42,0,0,1-.11-.2,1.94,1.94,0,0,1,0-.38,1.13,1.13,0,0,1,.11-.59.45.45,0,0,1,.38-.17h1.86l.19,0a.29.29,0,0,1,.16.09.41.41,0,0,1,.1.21,1.26,1.26,0,0,1,0,.37,1.08,1.08,0,0,1-.12.6.45.45,0,0,1-.37.16Z"/><path class="cls-2" d="M45.25,50.51l-.19,0a.29.29,0,0,1-.16-.09.42.42,0,0,1-.1-.2,1.34,1.34,0,0,1,0-.38,1,1,0,0,1,.12-.59.43.43,0,0,1,.37-.17h1.86l.19,0a.29.29,0,0,1,.16.09.41.41,0,0,1,.11.21,1.73,1.73,0,0,1,0,.37,1.08,1.08,0,0,1-.12.6.47.47,0,0,1-.38.16Z"/><path class="cls-2" d="M47.11,50.51l-.18,0a.26.26,0,0,1-.16-.09.42.42,0,0,1-.11-.2,1.84,1.84,0,0,1,0-.38,1,1,0,0,1,.12-.59.44.44,0,0,1,.37-.17H49l.19,0a.24.24,0,0,1,.15.09.35.35,0,0,1,.11.21,1.26,1.26,0,0,1,0,.37,1.08,1.08,0,0,1-.12.6.45.45,0,0,1-.37.16Z"/><path class="cls-2" d="M50.43,49.06V41.52h1.64v9H49l-.19,0a.29.29,0,0,1-.16-.09.42.42,0,0,1-.1-.2,1.34,1.34,0,0,1,0-.38,1,1,0,0,1,.12-.59.43.43,0,0,1,.37-.17Z"/><path class="cls-2" d="M55.23,41.52v9H53.59v-9Z"/><path class="cls-2" d="M69.63,50.51H62.09a6.12,6.12,0,0,1-1.24-.11,1.89,1.89,0,0,1-.81-.34,1.39,1.39,0,0,1-.44-.62,3,3,0,0,1-.13-.92V46.44h1.64v1.84a1.07,1.07,0,0,0,.06.39.53.53,0,0,0,.23.24,1.22,1.22,0,0,0,.44.12,6.88,6.88,0,0,0,.71,0H68V45.5h1.64ZM62.7,44.05a.9.9,0,0,1,.89-.9.85.85,0,0,1,.63.27.83.83,0,0,1,.27.63.86.86,0,0,1-.27.63.88.88,0,0,1-.63.26.89.89,0,0,1-.89-.89Zm2,0a.86.86,0,0,1,.26-.63.88.88,0,0,1,1.27,0,.86.86,0,0,1,.26.63.9.9,0,0,1-1.79,0Z"/><path class="cls-2" d="M72.78,41.52v9H71.14v-9Z"/><path class="cls-2" d="M75.14,46.05h1.64V49.8a6.79,6.79,0,0,1-.14,1.54,2.29,2.29,0,0,1-.48,1,2,2,0,0,1-1,.57,6,6,0,0,1-1.56.19V51.59a2.84,2.84,0,0,0,.82-.11.86.86,0,0,0,.44-.32,1.29,1.29,0,0,0,.2-.55,6.34,6.34,0,0,0,0-.81Z"/><path class="cls-2" d="M81.27,49.75a1.08,1.08,0,0,1-.12.6.46.46,0,0,1-.37.16h-.53a3.24,3.24,0,0,1-.79-.09,1.59,1.59,0,0,1-.62-.32,1.41,1.41,0,0,1-.4-.59,2.35,2.35,0,0,1-.15-.9V41.52h1.64v6.86c0,.29,0,.48.16.56a.71.71,0,0,0,.45.12h.24l.18,0a.29.29,0,0,1,.16.09.41.41,0,0,1,.11.21A1.73,1.73,0,0,1,81.27,49.75Z"/><path class="cls-2" d="M80.76,50.51l-.19,0a.27.27,0,0,1-.15-.09.42.42,0,0,1-.11-.2,1.84,1.84,0,0,1,0-.38,1,1,0,0,1,.12-.59.44.44,0,0,1,.37-.17h1.87l.19,0a.24.24,0,0,1,.15.09.35.35,0,0,1,.11.21,1.26,1.26,0,0,1,0,.37,1.08,1.08,0,0,1-.12.6.46.46,0,0,1-.37.16Z"/><path class="cls-2" d="M82.63,50.51l-.19,0a.29.29,0,0,1-.16-.09.42.42,0,0,1-.11-.2,1.94,1.94,0,0,1,0-.38,1,1,0,0,1,.12-.59.41.41,0,0,1,.37-.17h1.86l.19,0a.29.29,0,0,1,.16.09.41.41,0,0,1,.1.21,1.26,1.26,0,0,1,0,.37,1.08,1.08,0,0,1-.12.6.45.45,0,0,1-.37.16Z"/><path class="cls-2" d="M84.49,50.51l-.19,0a.24.24,0,0,1-.15-.09.35.35,0,0,1-.11-.2,1.34,1.34,0,0,1,0-.38,1,1,0,0,1,.12-.59.43.43,0,0,1,.37-.17h1.87l.19,0a.27.27,0,0,1,.15.09.41.41,0,0,1,.11.21,1.73,1.73,0,0,1,0,.37,1.08,1.08,0,0,1-.12.6.46.46,0,0,1-.37.16Z"/><path class="cls-2" d="M90.87,50.51l-.38,0a1.72,1.72,0,0,1-.39-.1,1.55,1.55,0,0,1-.36-.19,1.12,1.12,0,0,1-.28-.33,1.32,1.32,0,0,1-.37.34,1.51,1.51,0,0,1-.45.2,2.74,2.74,0,0,1-.5.08l-.51,0H86.36l-.19,0A.29.29,0,0,1,86,50.4a.42.42,0,0,1-.11-.2,1.84,1.84,0,0,1,0-.38,1.1,1.1,0,0,1,.12-.59.45.45,0,0,1,.38-.17h1a1,1,0,0,0,.6-.13c.12-.09.17-.29.17-.6V45.5h1.64v2.69a.8.8,0,0,0,.25.67,1.37,1.37,0,0,0,.85.2l.19,0a.24.24,0,0,1,.15.09.35.35,0,0,1,.11.21,1.26,1.26,0,0,1,0,.37,1.08,1.08,0,0,1-.12.6A.46.46,0,0,1,90.87,50.51Zm-4.18,2.11A.82.82,0,0,1,87,52a.85.85,0,0,1,.63-.27.86.86,0,0,1,.63.27.82.82,0,0,1,.26.62.86.86,0,0,1-.26.64.89.89,0,0,1-.63.26.88.88,0,0,1-.63-.26A.86.86,0,0,1,86.69,52.62Zm2,0A.82.82,0,0,1,89,52a.86.86,0,0,1,.63-.27.92.92,0,0,1,.9.89.87.87,0,0,1-.27.64.86.86,0,0,1-.63.26.89.89,0,0,1-.63-.26A.86.86,0,0,1,88.74,52.62Z"/><path class="cls-2" d="M90.87,50.51l-.19,0a.29.29,0,0,1-.16-.09.42.42,0,0,1-.11-.2,1.84,1.84,0,0,1,0-.38,1,1,0,0,1,.12-.59.45.45,0,0,1,.38-.17h1.86l.19,0a.24.24,0,0,1,.15.09.35.35,0,0,1,.11.21,1.26,1.26,0,0,1,0,.37,1.08,1.08,0,0,1-.12.6.45.45,0,0,1-.37.16Z"/><path class="cls-2" d="M92.73,50.51l-.19,0a.29.29,0,0,1-.16-.09.42.42,0,0,1-.1-.2,1.34,1.34,0,0,1,0-.38,1,1,0,0,1,.12-.59.43.43,0,0,1,.37-.17H94.6l.19,0a.27.27,0,0,1,.15.09.41.41,0,0,1,.11.21,1.83,1.83,0,0,1,0,.37,1,1,0,0,1-.12.6.43.43,0,0,1-.36.16Z"/><path class="cls-2" d="M94.6,50.51l-.19,0a.29.29,0,0,1-.16-.09.42.42,0,0,1-.11-.2,1.84,1.84,0,0,1,0-.38,1,1,0,0,1,.12-.59.45.45,0,0,1,.38-.17h1.86l.19,0a.24.24,0,0,1,.15.09.35.35,0,0,1,.11.21,1.26,1.26,0,0,1,0,.37,1.08,1.08,0,0,1-.12.6.45.45,0,0,1-.37.16Z"/><path class="cls-2" d="M96.9,49.06h.46a.66.66,0,0,0,.3-.08.35.35,0,0,0,.16-.18,1,1,0,0,0,.05-.33V46.05h1.64v2.14a.79.79,0,0,0,.89.87A1.69,1.69,0,0,0,101,49a.48.48,0,0,0,.25-.49V46.05h1.64v2.14a1,1,0,0,0,.2.66.82.82,0,0,0,.64.21,1.13,1.13,0,0,0,.56-.12c.14-.08.21-.25.21-.52V45.5h1.64v2.69a.94.94,0,0,0,.19.67,1.17,1.17,0,0,0,.81.2l.19,0a.27.27,0,0,1,.15.09.35.35,0,0,1,.11.21,1.26,1.26,0,0,1,0,.37,1.08,1.08,0,0,1-.12.6.46.46,0,0,1-.37.16,2,2,0,0,1-.72-.13,1.12,1.12,0,0,1-.58-.54,1.59,1.59,0,0,1-.8.56,3.68,3.68,0,0,1-.89.11,3,3,0,0,1-.82-.14,1.71,1.71,0,0,1-.78-.52,1.87,1.87,0,0,1-.79.55,3.45,3.45,0,0,1-.87.11,2.2,2.2,0,0,1-1.78-.66,1.38,1.38,0,0,1-.88.55,7.43,7.43,0,0,1-1.39.11h-.41l-.19,0a.29.29,0,0,1-.16-.09.42.42,0,0,1-.1-.2,1.34,1.34,0,0,1,0-.38,1,1,0,0,1,.12-.59.43.43,0,0,1,.37-.17Z"/><path class="cls-2" d="M107.15,50.51l-.19,0a.27.27,0,0,1-.15-.09.42.42,0,0,1-.11-.2,1.94,1.94,0,0,1,0-.38,1,1,0,0,1,.11-.59.44.44,0,0,1,.37-.17H109l.19,0a.29.29,0,0,1,.16.09.41.41,0,0,1,.1.21,1.26,1.26,0,0,1,0,.37,1.08,1.08,0,0,1-.12.6.45.45,0,0,1-.37.16Z"/><path class="cls-2" d="M109,50.51l-.19,0a.29.29,0,0,1-.16-.09.42.42,0,0,1-.11-.2,1.94,1.94,0,0,1,0-.38,1,1,0,0,1,.12-.59.43.43,0,0,1,.37-.17h1.86l.19,0a.29.29,0,0,1,.16.09.51.51,0,0,1,.11.21,1.83,1.83,0,0,1,0,.37,1,1,0,0,1-.12.6.45.45,0,0,1-.37.16Z"/><path class="cls-2" d="M110.88,50.51l-.19,0a.24.24,0,0,1-.15-.09.35.35,0,0,1-.11-.2,1.34,1.34,0,0,1,0-.38,1,1,0,0,1,.12-.59.44.44,0,0,1,.37-.17h1.87l.19,0a.27.27,0,0,1,.15.09.41.41,0,0,1,.11.21,1.26,1.26,0,0,1,0,.37,1.08,1.08,0,0,1-.12.6.45.45,0,0,1-.37.16Z"/><path class="cls-2" d="M114.2,49.06V41.52h1.63v9h-3.08l-.19,0a.29.29,0,0,1-.16-.09.42.42,0,0,1-.11-.2,1.94,1.94,0,0,1,0-.38,1,1,0,0,1,.12-.59.43.43,0,0,1,.37-.17Z"/><path class="cls-2" d="M119,41.52v9h-1.64v-9Z"/><path class="cls-2" d="M124.88,49.34A1.75,1.75,0,0,0,125,50a1.16,1.16,0,0,0,.4.51,2.15,2.15,0,0,0,.76.33,4.87,4.87,0,0,0,1.18.12,7,7,0,0,0,1.43-.12,3.26,3.26,0,0,0,.85-.31,1.08,1.08,0,0,0,.42-.4.79.79,0,0,0,.12-.39.34.34,0,0,0-.15-.3,2.88,2.88,0,0,0-.47-.29l-.69-.39a2.8,2.8,0,0,1-.55-.46,1.9,1.9,0,0,1-.37-.59,1.79,1.79,0,0,1-.14-.75,3.23,3.23,0,0,1,.17-1,2.77,2.77,0,0,1,.53-.89,2.64,2.64,0,0,1,.87-.66,3.28,3.28,0,0,1,2.06-.15l.54.16v1.48a4.47,4.47,0,0,0-.76-.13,3.74,3.74,0,0,0-.5,0,1.61,1.61,0,0,0-.57.1,1.22,1.22,0,0,0-.4.24,1.08,1.08,0,0,0-.23.34.94.94,0,0,0-.07.37.6.6,0,0,0,.25.49,4.16,4.16,0,0,0,.64.38,6.18,6.18,0,0,1,.75.41,2.29,2.29,0,0,1,.45.41,1.13,1.13,0,0,1,.24.44,1.68,1.68,0,0,1,.07.5,3.09,3.09,0,0,1-.21,1.09,2.56,2.56,0,0,1-.74,1,4.08,4.08,0,0,1-1.38.73,8.35,8.35,0,0,1-4.09.05,3.45,3.45,0,0,1-1.27-.65,2.38,2.38,0,0,1-.69-1,3.45,3.45,0,0,1-.21-1.23v-2h1.64Zm.72,4.81a.89.89,0,0,1,.26-.63.89.89,0,0,1,1.26,0,.86.86,0,0,1,.27.63.85.85,0,0,1-.27.63.87.87,0,0,1-1.26,0A.88.88,0,0,1,125.6,54.15Zm2.05,0a.89.89,0,0,1,.26-.63.91.91,0,0,1,1.27,0,.89.89,0,0,1,.26.63.9.9,0,0,1-.9.9.86.86,0,0,1-.63-.27A.88.88,0,0,1,127.65,54.15Z"/><path class="cls-2" d="M137.54,48.92a1.8,1.8,0,0,1-.11.62,1.4,1.4,0,0,1-.87.84,2.22,2.22,0,0,1-.81.13H132.7V49.06h2.47a1.89,1.89,0,0,0,.46-.05.22.22,0,0,0,.16-.21.77.77,0,0,0,0-.15.81.81,0,0,0-.09-.21,4,4,0,0,0-.23-.35l-.38-.56-1-1.49.73-.49.75-.47,1.1,1.78a13.6,13.6,0,0,1,.66,1.19A2.23,2.23,0,0,1,137.54,48.92Z"/><path class="cls-2" d="M141.77,49.75a1.08,1.08,0,0,1-.12.6.45.45,0,0,1-.37.16h-.53a3.15,3.15,0,0,1-.78-.09,1.59,1.59,0,0,1-.62-.32,1.52,1.52,0,0,1-.41-.59,2.58,2.58,0,0,1-.14-.9V41.52h1.64v6.86c0,.29.05.48.15.56a.75.75,0,0,0,.45.12h.24l.19,0a.29.29,0,0,1,.16.09.51.51,0,0,1,.11.21A1.83,1.83,0,0,1,141.77,49.75Z"/><path class="cls-2" d="M141.27,50.51l-.19,0a.29.29,0,0,1-.16-.09.42.42,0,0,1-.1-.2,1.34,1.34,0,0,1,0-.38,1,1,0,0,1,.12-.59.43.43,0,0,1,.37-.17h1.86l.19,0a.29.29,0,0,1,.16.09.41.41,0,0,1,.11.21,1.83,1.83,0,0,1,0,.37,1,1,0,0,1-.12.6.43.43,0,0,1-.37.16Z"/><path class="cls-2" d="M143.13,50.51l-.19,0a.33.33,0,0,1-.16-.09.53.53,0,0,1-.1-.2,1.84,1.84,0,0,1,0-.38,1,1,0,0,1,.12-.59.43.43,0,0,1,.37-.17H145l.19,0a.24.24,0,0,1,.15.09.35.35,0,0,1,.11.21,1.26,1.26,0,0,1,0,.37,1.08,1.08,0,0,1-.12.6.46.46,0,0,1-.37.16Z"/><path class="cls-2" d="M145,50.51l-.19,0a.29.29,0,0,1-.16-.09.42.42,0,0,1-.1-.2,1.34,1.34,0,0,1,0-.38,1.13,1.13,0,0,1,.11-.59.46.46,0,0,1,.38-.17h1.86l.19,0a.29.29,0,0,1,.16.09.41.41,0,0,1,.11.21,1.83,1.83,0,0,1,0,.37,1.08,1.08,0,0,1-.12.6.45.45,0,0,1-.37.16Z"/><path class="cls-2" d="M148.3,49.06V45.5h1.63v5h-3.08l-.19,0a.29.29,0,0,1-.16-.09.42.42,0,0,1-.1-.2,1.34,1.34,0,0,1,0-.38,1,1,0,0,1,.12-.59.43.43,0,0,1,.37-.17Zm-.1-5.74a.82.82,0,0,1,.26-.63.86.86,0,0,1,.63-.27.92.92,0,0,1,.9.9.9.9,0,0,1-.9.89.89.89,0,0,1-.63-.26A.85.85,0,0,1,148.2,43.32Z"/><rect class="cls-1" y="1.28" width="10.22" height="37.18"/><rect class="cls-1" x="30.47" y="15.89" width="9.61" height="22.57"/><path class="cls-1" d="M53.13,3.66c-1.89-1.59-4.67-2.39-8.32-2.39H14.14V38.46H24.45V9.71H39c2.77,0,4.63.51,5.56,1.52.75.79,1.11,2.31,1.11,4.55V38.46H55.77V9.71a7.49,7.49,0,0,0-2.64-6.05"/><polygon class="cls-3" points="94.78 10.95 86.9 11.74 83.75 14.07 90.68 13.61 94.78 10.95"/><path class="cls-3" d="M87.16,16.31l-5.43.12s-1.64,0-3.83,2.06L82.05,20S85.05,16.37,87.16,16.31Z"/><polygon class="cls-4" points="86.53 20.77 82.05 19.96 77.97 23.13 81.25 24.42 86.53 20.77"/><path class="cls-4" d="M97.49,12.41a27.81,27.81,0,0,1-6.81,1.2l-3.52,2.7a21.62,21.62,0,0,1,6.93-.66Z"/><path class="cls-5" d="M115.8,4.58a39.32,39.32,0,0,0-20.6,7.24,47.09,47.09,0,0,1,15.61-3.14Z"/><path class="cls-4" d="M106.88,13.31,94.09,15.65S91,16.71,86.53,20.77a17.63,17.63,0,0,1,9,2Z"/><path class="cls-2" d="M125.33,8a42.69,42.69,0,0,0-10.28.77l-8.17,4.58s6.89-2,10.84.3Z"/><path class="cls-2" d="M150,0a19.36,19.36,0,0,1-9.1,2.47c-5.78.29-8.09.23-9.61,1.36l-6,4.13s13.38-.21,15.61-.26S150.22,6,150,0Z"/><path class="cls-2" d="M144.72,12.15s-5.07,2.42-27,1.46L103.44,25.68s6.78,4.12,22.82,4.24C126.26,29.92,135.69,27.4,144.72,12.15Z"/><path class="cls-2" d="M95.48,22.74l8,2.94s-4.07,4.69-7,4.71L89,28.22Z"/></svg>